<svg width="38" height="38" viewBox="0 0 38 38" fill="none" xmlns="http://www.w3.org/2000/svg">
<rect width="38" height="38" rx="6" fill="#FFF1F1"/>
<path d="M13 29.5C12.45 29.5 11.9793 29.3043 11.588 28.913C11.1967 28.5217 11.0007 28.0507 11 27.5V17.5C11 16.95 11.196 16.4793 11.588 16.088C11.98 15.6967 12.4507 15.5007 13 15.5H14V13.5C14 12.1167 14.4877 10.9377 15.463 9.963C16.4383 8.98833 17.6173 8.50067 19 8.5C20.3827 8.49933 21.562 8.987 22.538 9.963C23.514 10.939 24.0013 12.118 24 13.5V15.5H25C25.55 15.5 26.021 15.696 26.413 16.088C26.805 16.48 27.0007 16.9507 27 17.5V27.5C27 28.05 26.8043 28.521 26.413 28.913C26.0217 29.305 25.5507 29.5007 25 29.5H13ZM19 24.5C19.55 24.5 20.021 24.3043 20.413 23.913C20.805 23.5217 21.0007 23.0507 21 22.5C20.9993 21.9493 20.8037 21.4787 20.413 21.088C20.0223 20.6973 19.5513 20.5013 19 20.5C18.4487 20.4987 17.978 20.6947 17.588 21.088C17.198 21.4813 17.002 21.952 17 22.5C16.998 23.048 17.194 23.519 17.588 23.913C17.982 24.307 18.4527 24.5027 19 24.5ZM16 15.5H22V13.5C22 12.6667 21.7083 11.9583 21.125 11.375C20.5417 10.7917 19.8333 10.5 19 10.5C18.1667 10.5 17.4583 10.7917 16.875 11.375C16.2917 11.9583 16 12.6667 16 13.5V15.5Z" fill="#FF878A"/>
</svg>
