<svg width="41" height="41" viewBox="0 0 41 41" fill="none" xmlns="http://www.w3.org/2000/svg">
<circle cx="20.5" cy="20.5" r="20.5" fill="#217446"/>
<path d="M20.95 16.088V20.088L22.95 22.088" stroke="white" stroke-width="2" stroke-linecap="round" stroke-linejoin="round"/>
<path d="M12 19.088C12.2241 16.888 13.2503 14.8476 14.8827 13.3559C16.5152 11.8643 18.6397 11.0258 20.8509 11.0006C23.0621 10.9753 25.2052 11.765 26.8713 13.219C28.5374 14.673 29.6099 16.6894 29.8842 18.8837C30.1585 21.0779 29.6153 23.2964 28.3584 25.1157C27.1014 26.9351 25.2186 28.228 23.0693 28.7478C20.9199 29.2676 18.6544 28.9779 16.705 27.934C14.7556 26.8901 13.2587 25.1651 12.5 23.088M12 28.088V23.088H17" stroke="white" stroke-width="2" stroke-linecap="round" stroke-linejoin="round"/>
</svg>
