<svg width="38" height="38" viewBox="0 0 38 38" fill="none" xmlns="http://www.w3.org/2000/svg">
<rect width="38" height="38" rx="6" fill="#EBF3FE"/>
<path d="M13 29.5C12.45 29.5 11.9793 29.3043 11.588 28.913C11.1967 28.5217 11.0007 28.0507 11 27.5V17.5C11 16.95 11.196 16.4793 11.588 16.088C11.98 15.6967 12.4507 15.5007 13 15.5H22V13.5C22 12.6667 21.7083 11.9583 21.125 11.375C20.5417 10.7917 19.8333 10.5 19 10.5C18.3 10.5 17.6873 10.7127 17.162 11.138C16.6367 11.5633 16.2827 12.0923 16.1 12.725C16.0333 12.9583 15.8957 13.146 15.687 13.288C15.4783 13.43 15.2493 13.5007 15 13.5C14.7167 13.5 14.4793 13.4083 14.288 13.225C14.0967 13.0417 14.0257 12.825 14.075 12.575C14.2583 11.4417 14.8123 10.479 15.737 9.687C16.6617 8.895 17.7493 8.49933 19 8.5C20.3833 8.5 21.5627 8.98767 22.538 9.963C23.5133 10.9383 24.0007 12.1173 24 13.5V15.5H25C25.55 15.5 26.021 15.696 26.413 16.088C26.805 16.48 27.0007 16.9507 27 17.5V27.5C27 28.05 26.8043 28.521 26.413 28.913C26.0217 29.305 25.5507 29.5007 25 29.5H13ZM19 24.5C19.55 24.5 20.021 24.3043 20.413 23.913C20.805 23.5217 21.0007 23.0507 21 22.5C20.9993 21.9493 20.8037 21.4787 20.413 21.088C20.0223 20.6973 19.5513 20.5013 19 20.5C18.4487 20.4987 17.978 20.6947 17.588 21.088C17.198 21.4813 17.002 21.952 17 22.5C16.998 23.048 17.194 23.519 17.588 23.913C17.982 24.307 18.4527 24.5027 19 24.5Z" fill="#80ACFF"/>
</svg>
